<svg xmlns="http://www.w3.org/2000/svg" viewBox="0 0 96 96" role="img" aria-labelledby="title desc">
  <title id="title">ClassDrive</title>
  <desc id="desc">A classroom file drive logo with a folder, document pages, and an upload arrow.</desc>
  <defs>
    <linearGradient id="bg" x1="18" y1="10" x2="82" y2="88" gradientUnits="userSpaceOnUse">
      <stop stop-color="#0f62fe"/>
      <stop offset="1" stop-color="#0f766e"/>
    </linearGradient>
    <linearGradient id="folder" x1="20" y1="30" x2="76" y2="76" gradientUnits="userSpaceOnUse">
      <stop stop-color="#eff6ff"/>
      <stop offset="1" stop-color="#bfdbfe"/>
    </linearGradient>
    <linearGradient id="page" x1="36" y1="24" x2="64" y2="66" gradientUnits="userSpaceOnUse">
      <stop stop-color="#ffffff"/>
      <stop offset="1" stop-color="#dbeafe"/>
    </linearGradient>
  </defs>
  <rect width="96" height="96" rx="24" fill="url(#bg)"/>
  <path fill="#083344" fill-opacity=".16" d="M21 38c0-5 4-9 9-9h13l7 7h18c5 0 9 4 9 9v23c0 5-4 9-9 9H30c-5 0-9-4-9-9V38Z"/>
  <path fill="#e0f2fe" d="M23 36c0-4.4 3.6-8 8-8h13.8l6.7 7H68c4.4 0 8 3.6 8 8v5H23V36Z"/>
  <path fill="url(#folder)" d="M20 45c0-4.4 3.6-8 8-8h40c4.4 0 8 3.6 8 8v23c0 4.4-3.6 8-8 8H28c-4.4 0-8-3.6-8-8V45Z"/>
  <path fill="url(#page)" stroke="#93c5fd" stroke-width="2" d="M35 21h20l12 12v31c0 3.3-2.7 6-6 6H35c-3.3 0-6-2.7-6-6V27c0-3.3 2.7-6 6-6Z"/>
  <path fill="#bfdbfe" d="M55 21v10c0 2.2 1.8 4 4 4h8L55 21Z"/>
  <path stroke="#0f62fe" stroke-linecap="round" stroke-width="4" d="M38 43h18M38 52h14"/>
  <path fill="#0f766e" d="M50 45a3 3 0 0 1 4.2 0l13 13a3 3 0 0 1-4.2 4.2L55 54.2V79a3 3 0 1 1-6 0V54.2l-8 8a3 3 0 0 1-4.2-4.2l13-13Z"/>
  <path fill="#ecfeff" d="M52 45.9 64.1 58a1.5 1.5 0 0 1-2.1 2.1l-8.5-8.5V79a1.5 1.5 0 0 1-3 0V51.6L42 60.1a1.5 1.5 0 0 1-2.1-2.1L52 45.9Z"/>
</svg>
